<svg xmlns="http://www.w3.org/2000/svg" width="900" height="640" viewBox="0 0 900 640" font-family="Times New Roman, Liberation Serif, serif">
<defs><marker id="a" markerWidth="10" markerHeight="8" refX="9" refY="4" orient="auto"><path d="M0,0 L10,4 L0,8 z" fill="#333333"/></marker></defs>
<rect width="900" height="640" fill="#FFFFFF"/>
<rect x="20" y="20" width="40" height="170" rx="8" fill="#DCE6F2" stroke="#333333" stroke-width="1.4"/>
<text x="40.0" y="105.0" font-size="13" font-weight="bold" text-anchor="middle" dominant-baseline="middle" transform="rotate(-90 40.0 105.0)">Identification</text>
<rect x="20" y="220" width="40" height="290" rx="8" fill="#DCE6F2" stroke="#333333" stroke-width="1.4"/>
<text x="40.0" y="365.0" font-size="13" font-weight="bold" text-anchor="middle" dominant-baseline="middle" transform="rotate(-90 40.0 365.0)">Screening</text>
<rect x="20" y="540" width="40" height="90" rx="8" fill="#DCE6F2" stroke="#333333" stroke-width="1.4"/>
<text x="40.0" y="585.0" font-size="13" font-weight="bold" text-anchor="middle" dominant-baseline="middle" transform="rotate(-90 40.0 585.0)">Included</text>
<rect x="80" y="20" width="420" height="170" rx="8" fill="#FFFFFF" stroke="#333333" stroke-width="1.4"/>
<text x="90" y="55.08" font-size="13" text-anchor="start" dominant-baseline="middle" font-weight="bold">Records identified (n = 188)</text>
<text x="90" y="71.72" font-size="13" text-anchor="start" dominant-baseline="middle">Reference lists of the research proposal</text>
<text x="90" y="88.36" font-size="13" text-anchor="start" dominant-baseline="middle">and earlier drafts (n = 134)</text>
<text x="90" y="105.0" font-size="13" text-anchor="start" dominant-baseline="middle">Structured keyword search and backward/forward</text>
<text x="90" y="121.64" font-size="13" text-anchor="start" dominant-baseline="middle">citation tracing (n = 38)</text>
<text x="90" y="138.28" font-size="13" text-anchor="start" dominant-baseline="middle">Standards, regulations, tools and statistical</text>
<text x="90" y="154.92000000000002" font-size="13" text-anchor="start" dominant-baseline="middle">methods added during method development (n = 16)</text>
<rect x="560" y="70" width="320" height="70" rx="8" fill="#F2F2F2" stroke="#333333" stroke-width="1.4"/>
<text x="570" y="96.68" font-size="13" text-anchor="start" dominant-baseline="middle" font-weight="bold">Records removed before screening</text>
<text x="570" y="113.32000000000001" font-size="13" text-anchor="start" dominant-baseline="middle">Duplicate records (n = 8)</text>
<rect x="80" y="250" width="420" height="60" rx="8" fill="#FFFFFF" stroke="#333333" stroke-width="1.4"/>
<text x="290.0" y="280.0" font-size="13" text-anchor="middle" dominant-baseline="middle" font-weight="bold">Records screened (n = 180)</text>
<rect x="560" y="225" width="320" height="110" rx="8" fill="#F2F2F2" stroke="#333333" stroke-width="1.4"/>
<text x="570" y="246.72" font-size="13" text-anchor="start" dominant-baseline="middle" font-weight="bold">Records excluded (n = 9)</text>
<text x="570" y="263.36" font-size="13" text-anchor="start" dominant-baseline="middle">Record could not be confirmed (n = 1)</text>
<text x="570" y="280.0" font-size="13" text-anchor="start" dominant-baseline="middle">Grey literature, commercial report or</text>
<text x="570" y="296.64" font-size="13" text-anchor="start" dominant-baseline="middle">non-peer-reviewed preprint (n = 3)</text>
<text x="570" y="313.28" font-size="13" text-anchor="start" dominant-baseline="middle">Outside the scope of the review (n = 5)</text>
<rect x="80" y="400" width="420" height="60" rx="8" fill="#FFFFFF" stroke="#333333" stroke-width="1.4"/>
<text x="290.0" y="430.0" font-size="13" text-anchor="middle" dominant-baseline="middle" font-weight="bold">Full-text records assessed for eligibility (n = 171)</text>
<rect x="560" y="375" width="320" height="110" rx="8" fill="#F2F2F2" stroke="#333333" stroke-width="1.4"/>
<text x="570" y="421.68" font-size="13" text-anchor="start" dominant-baseline="middle" font-weight="bold">Records excluded after full text (n = 8)</text>
<text x="570" y="438.32" font-size="13" text-anchor="start" dominant-baseline="middle">Not used in the final synthesis (n = 8)</text>
<rect x="80" y="540" width="420" height="90" rx="8" fill="#FFFFFF" stroke="#333333" stroke-width="1.4"/>
<text x="290.0" y="568.36" font-size="13" text-anchor="middle" dominant-baseline="middle" font-weight="bold">Sources included in the review (n = 163)</text>
<text x="290.0" y="585.0" font-size="13" text-anchor="middle" dominant-baseline="middle">of which 45 studies are summarised</text>
<text x="290.0" y="601.64" font-size="13" text-anchor="middle" dominant-baseline="middle">study by study in Table 2.11</text>
<path d="M290.0,190 L290.0,250" fill="none" stroke="#333333" stroke-width="1.4" marker-end="url(#a)"/>
<path d="M500,105.0 L560,105.0" fill="none" stroke="#333333" stroke-width="1.4" marker-end="url(#a)"/>
<path d="M290.0,310 L290.0,400" fill="none" stroke="#333333" stroke-width="1.4" marker-end="url(#a)"/>
<path d="M500,280.0 L560,280.0" fill="none" stroke="#333333" stroke-width="1.4" marker-end="url(#a)"/>
<path d="M290.0,460 L290.0,540" fill="none" stroke="#333333" stroke-width="1.4" marker-end="url(#a)"/>
<path d="M500,430.0 L560,430.0" fill="none" stroke="#333333" stroke-width="1.4" marker-end="url(#a)"/>
</svg>